screens;
 
http://baypic.net/img-51a0625a0e9ea.html 
 
http://baypic.net/img-51a0625c679df.html 
 
http://baypic.net/img-51a0625ebbcea.html 

Format : MPEG-4
Format profile : Base Media
Codec ID : isom
File size : 826 MiB
Duration : 25mn 56s
Overall bit rate mode : Variable
Overall bit rate : 4 449 Kbps
Writing application : Lavf52.64.2

Video
ID : 1
Format : AVC
Format/Info : Advanced Video Codec
Format profile : High@L4.0
Format settings, CABAC : Yes
Format settings, ReFrames : 2 frames
Codec ID : avc1
Codec ID/Info : Advanced Video Coding
Duration : 25mn 56s
Bit rate : 4 292 Kbps
Width : 1 920 pixels
Height : 1 080 pixels
Display aspect ratio : 16:9
Frame rate mode : Constant
Frame rate : 29.970 fps
Color space : YUV
Chroma subsampling : 4:2:0
Bit depth : 8 bits
Scan type : Progressive
Bits/(Pixel*Frame) : 0.069
Stream size : 797 MiB (96%)
Writing library : x264 core 107

Audio
ID : 2
Format : AAC
Format/Info : Advanced Audio Codec
Format profile : LC
Codec ID : 40
Duration : 25mn 56s
Bit rate mode : Variable
Bit rate : 152 Kbps
Channel(s) : 2 channels
Channel positions : Front: L R
Sampling rate : 44.1 KHz
Compression mode : Lossy
Delay relative to video : 33ms
Stream size : 28.1 MiB (3%)

